<?xml version="1.0" encoding="utf-8"?>
<!-- Generator: Adobe Illustrator 24.2.3, SVG Export Plug-In . SVG Version: 6.00 Build 0)  -->
<svg version="1.1" id="Layer_1" xmlns="http://www.w3.org/2000/svg" xmlns:xlink="http://www.w3.org/1999/xlink" x="0px" y="0px"
	 viewBox="0 0 841.9 595.3" style="enable-background:new 0 0 841.9 595.3;" xml:space="preserve">
<style type="text/css">
	.st0{fill:#FFFFFF;}
</style>
<g>
	<path class="st0" d="M155.3,192.5c-11.9-9.9-29.5-14.8-52.7-14.8c-6.4,0-13.5,0.4-21.4,1.3c-7.9,0.9-14.7,2.3-20.4,4.4
		c-3.1,1-5.6,2.5-7.5,4.4c-1.9,1.9-2.8,4.5-2.8,7.7v75v17.3v33.5c0,6.9,1.6,11.7,4.8,14.4c3.2,2.7,8.6,4.1,16.4,4.1
		c3.6,0,7.1-0.2,10.6-0.6c3-0.4,5.3-0.8,6.9-1.2c0.7-0.2,0.6-0.9,0.6-0.9v-49.3h17.8c13.7,0,25.5-2.3,35.3-6.8
		c9.8-4.6,17.3-11,22.6-19.2c5.2-8.2,7.9-17.9,7.9-28.9C173.2,215.8,167.2,202.4,155.3,192.5z M125.6,250.6
		c-5.1,4.1-12,6.2-20.8,6.2H89.4v-46.4c2.4-0.3,4.9-0.6,7.3-0.8c2.5-0.2,5.3-0.3,8.4-0.3c9.1,0,16.1,2,20.9,5.9
		c4.8,4,7.2,9.8,7.2,17.5C133.2,240.6,130.7,246.5,125.6,250.6z"/>
	<path class="st0" d="M293.7,299.2c-1.5-1.7-3.2-3.1-5.1-4.1c-0.8-0.4-3.6,0-4.3,0.5c-3.2,2.5-7.2,5-12,7.6
		c-5.9,3.2-12.3,5.5-19.4,6.9c-8.8,1.7-16.8,1.2-23.9-1.6c-5.7-2.2-10.2-6.4-13.5-12.6l64.5-22.5c4.9-1.6,8.6-4.1,10.9-7.3
		c2.4-3.2,3-7.5,2-12.7c-2-10.5-6.2-19.2-12.6-26.2c-6.4-7-14.4-12-24-15c-9.6-3-20.2-3.4-31.8-1.1c-7.9,1.5-15.3,4.2-22.2,8.2
		c-6.9,3.9-12.7,9-17.5,15.3c-4.8,6.3-8.2,13.7-10.2,22.3c-1.9,8.6-1.9,18.3,0.2,29.1c2.8,14.7,8.1,26.4,15.9,35
		c7.8,8.7,17.3,14.4,28.7,17.4c11.3,2.9,23.5,3.1,36.5,0.6c8.9-1.7,16.8-4.1,23.4-7.1c6.7-3,11.7-6.6,15-10.7
		c3.3-4.1,4.5-8.7,3.5-13.8C297.2,304.3,295.8,301.6,293.7,299.2z M212.6,250.3c4.1-6.1,9.9-9.9,17.5-11.4
		c7.3-1.4,13.1-0.4,17.6,2.9c4.5,3.3,7.4,7.3,8.6,12l-48,17.2C207.5,262.8,208.9,255.9,212.6,250.3z"/>
	<path class="st0" d="M364.5,210.7c-8.8,0-17.1,1-25.1,3c-8,2-14.8,4.7-20.5,8.1c-4.1,2.6-7.3,5.5-9.7,8.9
		c-2.3,3.4-3.5,7.4-3.5,12.2V270v9.8v42.3c0,6.7,1.7,11.3,5,13.9c3.4,2.6,8.6,3.9,15.9,3.9c3.6,0,7-0.2,10.1-0.6
		c3.1-0.4,5.5-0.9,7.2-1.4v-58v-9v-23.2c3.6-2.1,8-3.7,13.1-4.9c5.2-1.2,10.3-1.8,15.5-1.8c2.9,0,5.6,0.1,8.1,0.4
		c0.7,0.1,1.7,0.5,3,0.4c0.9-0.1,3.2-0.4,4.7-2.2c0.7-0.8,0.9-1.7,1.3-3.5c0.8-4,1.2-6,1.2-7.7C390.8,216.5,382,210.7,364.5,210.7z"
		/>
	<path class="st0" d="M468.1,309.5c-0.2-0.3-1.1-1-2.3-0.5c-1.9,0.7-3.5,1.1-6.1,1.6c-3,0.6-5.8,0.9-8.4,0.9
		c-5.7,0-10.1-1.1-13.1-3.4c-3.1-2.2-4.6-5.8-4.6-10.6v-21.1V270v-23.5h26.8c4,0,7.1-1.2,9.4-3.6c2.3-2.4,3.5-6.2,3.5-11.3
		c0-3.1-0.4-5.9-1.3-8.5c-0.7-2.2-1.6-3.9-2.2-5.3c-0.3-0.6-0.9-0.6-0.9-0.6h-35.3v-7.7c0-6.9-1.6-11.6-4.9-14.2
		c-3.3-2.6-8.6-3.9-16-3.9c-3.4,0-6.7,0.3-9.8,0.9c-2.2,0.4-4.1,0.8-5.6,1.2c-0.5,0.1-0.9,0.2-1.3,0.3c-0.4,0.1-0.4,0.5-0.4,0.5v1.6
		V270v6.4v23.7c0,14.8,4,25.4,12,32c8,6.5,19.2,9.8,33.6,9.8c11.3,0,19.4-1.9,24.2-5.7c4.8-3.8,7.2-8.6,7.2-14.4
		c0-2.9-0.6-5.5-1.7-7.7C470,312.2,469.2,310.8,468.1,309.5z"/>
	<path class="st0" d="M595.4,241.5c-5.5-9.9-13.1-17.5-22.9-22.9c-9.8-5.4-21.2-8.1-34.3-8.1c-12.9,0-24.3,2.7-34.2,8.1
		c-9.9,5.4-17.6,13-23.1,22.7c-5.5,9.7-8.2,21.4-8.2,34.9c0,13.6,2.7,25.3,8.1,35.2c5.4,9.9,13.1,17.4,22.9,22.7
		c9.9,5.2,21.4,7.9,34.4,7.9c12.4,0,23.2-2.3,32.6-7c-2.6-4.5-3.9-9.6-3.9-15.4c0-8.1,2.6-14.9,7.7-20.5c5.1-5.6,12-8.4,20.5-8.4
		c2.6,0,5,0.3,7.3,0.7c0.9-4.8,1.3-9.8,1.3-15.1C603.6,262.9,600.9,251.4,595.4,241.5z M557.5,302.5c-4.6,6.2-11.1,9.3-19.3,9.3
		s-14.7-3-19.3-9.2c-4.6-6.1-7-14.9-7-26.4c0-11.3,2.4-20.1,7.1-26.3c4.7-6.2,11.1-9.3,19.2-9.3c8.2,0,14.7,3.1,19.3,9.4
		c4.6,6.3,7,15,7,26.2C564.4,287.5,562.1,296.3,557.5,302.5z"/>
</g>
<path class="st0" d="M576.1,319.5c0-5.4,1.7-10.1,5.2-13.8c3.5-3.8,8.1-5.6,13.8-5.6c5.9,0,10.6,1.9,14,5.6
	c3.5,3.8,5.2,8.4,5.2,13.8c0,5.5-1.7,10.1-5.2,13.8c-3.5,3.8-8.1,5.6-14,5.6c-5.7,0-10.4-1.9-13.8-5.6
	C577.8,329.5,576.1,324.9,576.1,319.5z"/>
<g>
	<path class="st0" d="M636.5,286.6V266h8.1v21.4c0,1-0.2,1.8-0.6,2.4c-0.4,0.6-1.1,1.2-2,1.8c-1,0.7-2.5,1.3-4.3,1.9
		c-1.8,0.5-3.9,0.8-6.2,0.8c-3.4,0-6.4-0.6-9-1.7c-2.6-1.2-4.5-2.9-5.9-5.4c-1.4-2.4-2.1-5.5-2.1-9.2c0-3.8,0.7-6.9,2.1-9.4
		c1.4-2.4,3.3-4.2,5.7-5.4c2.4-1.2,5.1-1.7,8-1.7c1.6,0,3.1,0.2,4.4,0.6c1.3,0.4,2.4,0.9,3.2,1.4v6.9c-0.7-0.7-1.6-1.2-2.7-1.7
		c-1.1-0.5-2.4-0.7-3.9-0.7c-1.6,0-3.1,0.3-4.4,1c-1.3,0.7-2.3,1.8-3.1,3.3c-0.7,1.5-1.1,3.5-1.1,5.9c0,3.4,0.8,5.9,2.4,7.5
		c1.6,1.6,3.7,2.4,6.3,2.4c1.2,0,2.2-0.1,3-0.4C635.2,287.2,635.9,286.9,636.5,286.6z M644.5,267.7l-8.1,0.1v-16.9
		c0.3-0.1,0.8-0.2,1.5-0.3c0.7-0.1,1.4-0.2,2.1-0.2c1.6,0,2.7,0.3,3.4,0.8c0.7,0.5,1,1.5,1,2.9V267.7z"/>
	<path class="st0" d="M652.6,253.2c0-1.3,0.4-2.3,1.3-3.2c0.9-0.9,2-1.3,3.4-1.3c1.4,0,2.5,0.4,3.4,1.3c0.9,0.9,1.3,1.9,1.3,3.2
		c0,1.2-0.4,2.3-1.3,3.2c-0.9,0.9-2,1.3-3.4,1.3c-1.4,0-2.5-0.4-3.4-1.3C653.1,255.5,652.6,254.4,652.6,253.2z M661.4,280.2h-8.1
		v-17.5c0.3-0.1,0.9-0.3,1.5-0.4c0.7-0.1,1.4-0.2,2.2-0.2c1.5,0,2.6,0.3,3.3,0.8c0.7,0.5,1,1.5,1,3V280.2z M653.3,276.1h8.1v17.2
		c-0.3,0.1-0.9,0.3-1.5,0.4c-0.7,0.1-1.4,0.2-2.2,0.2c-1.5,0-2.6-0.3-3.3-0.8c-0.7-0.5-1.1-1.5-1.1-2.9V276.1z"/>
	<path class="st0" d="M682.9,292.3c-2.6,0-5-0.5-7.1-1.5c-2.2-1-3.9-2.6-5.2-4.9c-1.3-2.3-2-5.3-2-9c0-3.4,0.7-6.3,2-8.5
		c1.3-2.3,3.2-4,5.6-5.2c2.4-1.2,5.2-1.7,8.3-1.7c2.2,0,4.3,0.3,6.2,0.9c1.9,0.6,3.4,1.2,4.6,2c0.7,0.5,1.3,1.1,1.8,1.7
		c0.5,0.7,0.7,1.5,0.7,2.5V289h-7.9v-19.7c-0.6-0.3-1.3-0.7-2.1-0.9c-0.8-0.3-1.9-0.4-3.1-0.4c-2.4,0-4.4,0.7-5.9,2.2
		c-1.5,1.5-2.3,3.8-2.3,6.8c0,3.4,0.7,5.7,2.2,7.1c1.5,1.4,3.3,2,5.4,2c1.7,0,3-0.3,4-0.9c1-0.6,1.9-1.2,2.6-1.8l0.3,6.5
		c-0.8,0.6-1.9,1.2-3.2,1.6C686.5,292.1,684.9,292.3,682.9,292.3z M690.1,293.6v-6.4h7.7v6.7c0,3-0.7,5.4-2,7.2
		c-1.4,1.9-3.2,3.2-5.5,4.1c-2.3,0.9-4.9,1.3-7.8,1.3c-2.3,0-4.2-0.2-5.9-0.7c-1.7-0.4-2.9-0.9-3.7-1.4c-1.4-0.9-2.2-2.1-2.2-3.6
		c0-0.8,0.2-1.5,0.5-2.1c0.3-0.6,0.8-1.1,1.2-1.4c1.1,0.7,2.5,1.3,4.1,1.8c1.6,0.5,3.4,0.8,5.2,0.8c2.6,0,4.7-0.5,6.2-1.5
		C689.3,297.5,690.1,295.8,690.1,293.6z"/>
	<path class="st0" d="M705.7,253.2c0-1.3,0.4-2.3,1.3-3.2c0.9-0.9,2-1.3,3.4-1.3c1.4,0,2.5,0.4,3.4,1.3c0.9,0.9,1.3,1.9,1.3,3.2
		c0,1.2-0.4,2.3-1.3,3.2c-0.9,0.9-2,1.3-3.4,1.3c-1.4,0-2.5-0.4-3.4-1.3C706.2,255.5,705.7,254.4,705.7,253.2z M714.5,280.2h-8.1
		v-17.5c0.3-0.1,0.9-0.3,1.5-0.4c0.7-0.1,1.4-0.2,2.2-0.2c1.5,0,2.6,0.3,3.3,0.8c0.7,0.5,1,1.5,1,3V280.2z M706.4,276.1h8.1v17.2
		c-0.3,0.1-0.9,0.3-1.5,0.4c-0.7,0.1-1.4,0.2-2.2,0.2c-1.5,0-2.6-0.3-3.3-0.8c-0.7-0.5-1.1-1.5-1.1-2.9V276.1z"/>
	<path class="st0" d="M731.3,277.9h-8.1v-23.6c0.3-0.1,0.9-0.3,1.5-0.4c0.7-0.1,1.4-0.2,2.1-0.2c1.5,0,2.6,0.3,3.3,0.8
		c0.7,0.5,1,1.5,1,2.9V277.9z M723.3,276.1h8.1v7.7c0,1.4,0.4,2.5,1.3,3.1c0.9,0.6,2.1,0.9,3.6,0.9c0.7,0,1.4-0.1,2.3-0.3
		c0.8-0.2,1.5-0.4,2.1-0.7c0.3,0.3,0.6,0.8,0.9,1.2s0.4,1.1,0.4,1.8c0,1.3-0.6,2.3-1.8,3.1c-1.2,0.8-3.1,1.2-5.6,1.2
		c-3.4,0-6.2-0.8-8.2-2.3c-2-1.5-3-4.1-3-7.6V276.1z M728.2,269.4v-6.4H741c0.2,0.3,0.4,0.7,0.6,1.3c0.2,0.6,0.3,1.2,0.3,1.8
		c0,1.1-0.3,1.9-0.8,2.5c-0.5,0.5-1.2,0.8-2,0.8H728.2z"/>
	<path class="st0" d="M760.7,294.4c-4.4,0-7.8-0.8-10.3-2.5c-2.5-1.7-3.7-4.2-3.7-7.5c0-2.9,0.9-5.2,2.8-6.7
		c1.9-1.5,4.5-2.5,8.1-2.8l8.9-0.9v-1.2c0-1.7-0.6-3-1.8-3.8c-1.2-0.8-2.9-1.2-5.1-1.2c-1.7,0-3.4,0.2-5,0.7c-1.6,0.4-3.1,1-4.3,1.6
		c-0.4-0.3-0.8-0.8-1.2-1.4c-0.3-0.6-0.5-1.2-0.5-1.9c0-1.6,0.9-2.7,2.6-3.5c1.2-0.6,2.7-1,4.3-1.2c1.6-0.3,3.3-0.4,4.9-0.4
		c4.3,0,7.7,0.9,10.2,2.7c2.5,1.8,3.8,4.7,3.8,8.5v15.1c0,1-0.3,1.9-0.8,2.5c-0.5,0.6-1.1,1.2-1.9,1.6c-1.2,0.7-2.8,1.3-4.6,1.7
		C765.2,294.2,763.1,294.4,760.7,294.4z M760.7,288.2c1.3,0,2.5-0.1,3.5-0.4c1-0.3,1.8-0.5,2.3-0.9v-7.5l-6.5,0.7
		c-1.8,0.1-3.2,0.5-4.1,1.1c-0.9,0.6-1.4,1.6-1.4,2.8c0,1.3,0.5,2.3,1.5,3C757.1,287.9,758.6,288.2,760.7,288.2z"/>
	<path class="st0" d="M791.2,280.6l-8.1-0.4v-29.4c0.3-0.1,0.8-0.2,1.5-0.3c0.7-0.1,1.4-0.2,2.1-0.2c1.6,0,2.7,0.3,3.4,0.8
		c0.7,0.5,1,1.5,1,2.9V280.6z M783.1,276.1l8.1,0.4v16.8c-0.3,0.1-0.9,0.3-1.5,0.4c-0.7,0.1-1.4,0.2-2.2,0.2c-1.5,0-2.6-0.3-3.3-0.8
		c-0.7-0.5-1.1-1.5-1.1-2.9V276.1z"/>
</g>
<g>
	<path class="st0" d="M136.1,392.8h-4v-15.3c0.2-0.1,0.4-0.1,0.8-0.2c0.3-0.1,0.7-0.1,1.1-0.1c0.7,0,1.3,0.1,1.6,0.4
		c0.3,0.3,0.5,0.8,0.5,1.4V392.8z M132.1,389.5h4v17.9c-0.2,0.1-0.4,0.1-0.7,0.2c-0.3,0.1-0.7,0.1-1.1,0.1c-0.7,0-1.3-0.1-1.6-0.4
		c-0.4-0.3-0.5-0.8-0.5-1.4V389.5z"/>
	<path class="st0" d="M164.2,392.3v5.1h-4v-4.9c0-1.8-0.5-3.2-1.6-4.1c-1-0.9-2.4-1.3-4.2-1.3c-1.3,0-2.5,0.2-3.5,0.5
		c-1,0.3-1.9,0.7-2.6,1.1v8.6h-4V389c0-0.7,0.1-1.3,0.4-1.7c0.3-0.4,0.8-0.9,1.5-1.3c0.9-0.5,2-1,3.4-1.4c1.4-0.4,3-0.7,4.8-0.7
		c3,0,5.4,0.7,7.1,2.1C163.3,387.4,164.2,389.5,164.2,392.3z M144.4,394.7h4v12.7c-0.2,0.1-0.4,0.1-0.7,0.2
		c-0.3,0.1-0.7,0.1-1.1,0.1c-0.7,0-1.2-0.1-1.6-0.4c-0.4-0.3-0.5-0.7-0.5-1.4V394.7z M160.2,394.7h4v12.7c-0.2,0.1-0.4,0.1-0.8,0.2
		c-0.3,0.1-0.7,0.1-1.1,0.1c-0.7,0-1.3-0.1-1.6-0.4c-0.3-0.3-0.5-0.7-0.5-1.4V394.7z"/>
	<path class="st0" d="M182.2,387.2c-2.2,0-4.1,0.8-5.6,2.3c-1.5,1.5-2.2,3.7-2.2,6.5c0,2.8,0.7,5,2.2,6.5c1.4,1.5,3.3,2.3,5.7,2.3
		c1.4,0,2.5-0.2,3.5-0.6c0.9-0.4,1.7-0.8,2.5-1.3c0.4,0.2,0.7,0.4,0.9,0.7c0.2,0.3,0.3,0.7,0.3,1.1c0,0.9-0.7,1.7-2.1,2.4
		c-1.4,0.6-3.1,1-5.1,1c-2.3,0-4.3-0.4-6.1-1.3c-1.8-0.9-3.2-2.2-4.2-4c-1-1.8-1.5-4-1.5-6.7c0-2.7,0.5-4.9,1.6-6.7
		c1.1-1.8,2.5-3.2,4.3-4.1c1.8-0.9,3.8-1.4,5.9-1.4c2,0,3.7,0.3,5.1,1c1.3,0.7,2,1.5,2,2.4c0,0.4-0.1,0.7-0.3,1
		c-0.2,0.3-0.5,0.5-0.9,0.7c-0.7-0.5-1.5-0.9-2.4-1.3C184.7,387.4,183.5,387.2,182.2,387.2z"/>
	<path class="st0" d="M199.6,396.9l-4-0.5v-20.9c0.2-0.1,0.4-0.1,0.8-0.2c0.3-0.1,0.7-0.1,1.1-0.1c0.7,0,1.3,0.1,1.6,0.4
		c0.3,0.3,0.5,0.7,0.5,1.4V396.9z M195.7,394.4l4,0.6v12.4c-0.2,0.1-0.4,0.1-0.7,0.2c-0.3,0.1-0.7,0.1-1.1,0.1
		c-0.7,0-1.2-0.1-1.6-0.4c-0.4-0.3-0.5-0.7-0.5-1.4V394.4z"/>
	<path class="st0" d="M211.4,397.1h-4v-12.5c0.2-0.1,0.4-0.1,0.8-0.2c0.3-0.1,0.7-0.1,1.1-0.1c0.7,0,1.2,0.1,1.6,0.4
		c0.3,0.3,0.5,0.8,0.5,1.4V397.1z M207.4,399.1v-4.5h4v4.3c0,2.1,0.6,3.6,1.7,4.6c1.1,0.9,2.7,1.4,4.7,1.4c1.3,0,2.4-0.1,3.4-0.4
		c0.9-0.3,1.6-0.6,2.2-0.9v-9h4v8.8c0,0.7-0.1,1.2-0.3,1.7c-0.2,0.4-0.6,0.8-1.3,1.2c-0.7,0.4-1.8,0.8-3.1,1.2
		c-1.4,0.4-3,0.6-4.9,0.6c-2.2,0-4-0.3-5.6-1c-1.5-0.6-2.7-1.6-3.5-3C207.8,402.8,207.4,401.1,207.4,399.1z M227.2,397.1h-4v-12.5
		c0.2-0.1,0.4-0.1,0.8-0.2c0.3-0.1,0.7-0.1,1.1-0.1c0.7,0,1.3,0.1,1.6,0.4c0.3,0.3,0.5,0.8,0.5,1.4V397.1z"/>
	<path class="st0" d="M250.8,401.4c0,2.1-0.8,3.8-2.3,5c-1.6,1.2-3.8,1.8-6.7,1.8c-2.5,0-4.6-0.4-6.1-1.2c-1.6-0.8-2.4-1.6-2.4-2.5
		c0-0.4,0.1-0.8,0.3-1.2c0.2-0.4,0.5-0.7,1-0.9c0.9,0.6,1.9,1.2,3.1,1.7c1.2,0.5,2.5,0.8,4.1,0.8c3.4,0,5.1-1.2,5.1-3.5
		c0-1-0.3-1.7-0.9-2.4c-0.6-0.6-1.4-1-2.5-1.3l-4.1-1.1c-2-0.5-3.5-1.3-4.4-2.3c-0.9-1-1.4-2.3-1.4-3.9c0-1.7,0.7-3.3,2.1-4.6
		c1.4-1.3,3.6-1.9,6.5-1.9c1.6,0,2.9,0.2,4.1,0.5c1.2,0.3,2.1,0.7,2.7,1.2c0.6,0.5,1,1.1,1,1.7c0,0.4-0.1,0.8-0.3,1.1
		c-0.2,0.3-0.5,0.6-0.9,0.7c-0.4-0.3-0.9-0.6-1.5-0.9c-0.6-0.3-1.3-0.6-2.2-0.8c-0.8-0.2-1.7-0.3-2.7-0.3c-1.5,0-2.6,0.3-3.5,0.8
		c-0.9,0.6-1.3,1.4-1.3,2.4c0,0.7,0.3,1.4,0.8,1.9c0.5,0.5,1.3,0.9,2.5,1.2l3.4,0.8c2.2,0.5,3.9,1.4,5,2.5
		C250.2,398,250.8,399.5,250.8,401.4z"/>
	<path class="st0" d="M265.5,408.1c-3.1,0-5.5-0.6-7.2-1.8c-1.7-1.2-2.5-3-2.5-5.3c0-2.1,0.7-3.8,2.2-4.9c1.4-1.1,3.4-1.8,6-2.1
		l7-0.7v-1.4c0-1.6-0.5-2.9-1.5-3.6c-1-0.8-2.3-1.1-4-1.1c-1.4,0-2.6,0.2-3.9,0.6c-1.2,0.4-2.3,0.8-3.3,1.3
		c-0.3-0.2-0.5-0.5-0.7-0.8c-0.2-0.3-0.3-0.6-0.3-1c0-0.9,0.5-1.5,1.4-2c0.9-0.5,1.9-0.8,3.1-1.1c1.2-0.2,2.4-0.4,3.7-0.4
		c2.9,0,5.1,0.6,6.8,1.9c1.7,1.3,2.5,3.3,2.5,6.1v11.7c0,0.7-0.1,1.3-0.4,1.7c-0.3,0.4-0.7,0.7-1.3,1.1c-0.8,0.4-1.8,0.8-3.2,1.2
		C268.6,408,267.2,408.1,265.5,408.1z M261.9,375.2c0.9,0,1.8,0.1,2.5,0.4c0.7,0.3,1.4,0.6,2.1,0.8c0.6,0.3,1.2,0.4,1.8,0.4
		c0.6,0,1-0.2,1.3-0.5c0.3-0.4,0.5-0.8,0.6-1.3h0.3c0.6,0,1.1,0.1,1.6,0.4c0.5,0.3,0.7,0.8,0.7,1.5c0,0.9-0.3,1.7-1,2.2
		c-0.7,0.6-1.5,0.8-2.6,0.8c-0.9,0-1.8-0.1-2.6-0.4c-0.8-0.3-1.5-0.6-2.2-0.9c-0.7-0.3-1.3-0.4-1.8-0.4c-0.6,0-1,0.2-1.3,0.5
		c-0.3,0.4-0.5,0.8-0.6,1.4h-0.3c-0.6,0-1.1-0.1-1.6-0.4c-0.5-0.3-0.7-0.8-0.7-1.4c0-0.7,0.2-1.2,0.5-1.7c0.3-0.4,0.8-0.8,1.4-1
		C260.7,375.3,261.3,375.2,261.9,375.2z M265.5,404.9c1.4,0,2.5-0.1,3.4-0.4c0.9-0.3,1.6-0.6,2-0.8v-7.2l-6.1,0.6
		c-1.7,0.1-3,0.5-3.8,1.1c-0.8,0.6-1.2,1.5-1.2,2.7c0,1.2,0.5,2.2,1.5,2.9C262.2,404.5,263.6,404.9,265.5,404.9z"/>
	<path class="st0" d="M303.3,396c0,2.4-0.5,4.6-1.4,6.4c-0.9,1.8-2.2,3.2-3.9,4.2c-1.7,1-3.7,1.5-5.9,1.5c-2.3,0-4.3-0.5-6-1.5
		c-1.7-1-3-2.4-3.9-4.2c-0.9-1.8-1.4-3.9-1.4-6.4c0-2.5,0.5-4.6,1.4-6.4c0.9-1.8,2.3-3.2,4-4.2c1.7-1,3.7-1.5,5.9-1.5
		c2.2,0,4.2,0.5,5.9,1.5c1.7,1,3,2.4,3.9,4.2C302.8,391.4,303.3,393.5,303.3,396z M292,387.2c-2.2,0-4,0.8-5.3,2.4
		c-1.3,1.6-2,3.7-2,6.5c0,2.8,0.6,4.9,1.9,6.5c1.3,1.6,3,2.3,5.3,2.3c2.2,0,4-0.8,5.3-2.4c1.3-1.6,1.9-3.7,1.9-6.5
		c0-2.7-0.6-4.9-1.9-6.5C296.1,388,294.3,387.2,292,387.2z"/>
	<path class="st0" d="M320.8,398.5l-0.2-3.1l15-2c-0.1-1.8-0.8-3.3-1.9-4.5c-1.1-1.2-2.7-1.8-4.7-1.8c-2,0-3.7,0.7-5.1,2.2
		c-1.3,1.5-2,3.6-2,6.3v1.1c0.2,2.6,1.1,4.6,2.6,6c1.5,1.4,3.6,2.1,6.2,2.1c1.4,0,2.6-0.2,3.8-0.7c1.1-0.5,2-1,2.7-1.5
		c0.4,0.2,0.7,0.5,0.9,0.8c0.2,0.3,0.3,0.7,0.3,1.1c0,0.6-0.4,1.2-1.1,1.8c-0.7,0.5-1.7,1-2.8,1.3c-1.2,0.3-2.5,0.5-3.9,0.5
		c-2.5,0-4.7-0.5-6.6-1.4c-1.9-0.9-3.3-2.3-4.3-4.1c-1-1.8-1.5-4.1-1.5-6.7c0-1.9,0.3-3.6,0.8-5c0.5-1.5,1.3-2.7,2.3-3.7
		c1-1,2.1-1.8,3.5-2.4c1.4-0.5,2.8-0.8,4.4-0.8c2,0,3.8,0.4,5.3,1.3c1.5,0.9,2.7,2.1,3.6,3.6c0.9,1.5,1.3,3.3,1.3,5.3
		c0,0.7-0.2,1.2-0.5,1.6c-0.3,0.3-0.8,0.5-1.4,0.6L320.8,398.5z M328.4,378.8l4.8-5.4c0.7,0,1.3,0.2,1.8,0.6
		c0.4,0.4,0.7,0.8,0.7,1.3c0,0.4-0.1,0.8-0.3,1.1c-0.2,0.3-0.5,0.7-1,1.1l-4.5,4.4c-0.6,0-1.1-0.2-1.6-0.5c-0.4-0.3-0.6-0.7-0.6-1.2
		c0-0.3,0.1-0.6,0.2-0.8C328.1,379.2,328.2,379,328.4,378.8z"/>
	<path class="st0" d="M358.9,395.9h-4v-17.9c0.2-0.1,0.4-0.1,0.8-0.2c0.3-0.1,0.7-0.1,1.1-0.1c0.7,0,1.2,0.1,1.6,0.4
		c0.3,0.3,0.5,0.7,0.5,1.4V395.9z M355,394.4h4v6.8c0,1.3,0.4,2.3,1.1,2.8c0.8,0.5,1.8,0.8,3.1,0.8c0.6,0,1.2-0.1,1.9-0.3
		c0.7-0.2,1.3-0.4,1.7-0.7c0.2,0.2,0.4,0.4,0.5,0.7c0.2,0.3,0.2,0.6,0.2,1c0,0.7-0.4,1.3-1.3,1.8c-0.9,0.5-2,0.7-3.6,0.7
		c-2.3,0-4.2-0.5-5.6-1.5c-1.4-1-2.2-2.7-2.2-5.1V394.4z M357,388.3v-3.3h10.1c0.1,0.1,0.2,0.3,0.3,0.6c0.1,0.3,0.1,0.6,0.1,0.9
		c0,0.5-0.1,0.9-0.4,1.2c-0.3,0.3-0.6,0.4-1.1,0.4H357z"/>
	<path class="st0" d="M377.3,388.8v7.8h-4v-7.5c0-0.8,0.1-1.4,0.4-1.8c0.3-0.4,0.8-0.9,1.4-1.3c0.9-0.6,2-1,3.5-1.5
		c1.5-0.4,3.1-0.6,5-0.6c2.6,0,4,0.7,4,2c0,0.3,0,0.6-0.1,0.9c-0.1,0.3-0.2,0.5-0.4,0.7c-0.3-0.1-0.8-0.1-1.3-0.2
		c-0.5-0.1-1.1-0.1-1.6-0.1c-1.5,0-2.9,0.2-4,0.5C379,388,378.1,388.4,377.3,388.8z M373.3,394.4l4,0.6v12.4
		c-0.2,0.1-0.4,0.1-0.7,0.2c-0.3,0.1-0.7,0.1-1.1,0.1c-0.7,0-1.2-0.1-1.6-0.4c-0.4-0.3-0.5-0.7-0.5-1.4V394.4z"/>
	<path class="st0" d="M400.2,408.1c-3.1,0-5.5-0.6-7.2-1.8c-1.7-1.2-2.5-3-2.5-5.3c0-2.1,0.7-3.8,2.2-4.9c1.4-1.1,3.4-1.8,6-2.1
		l7-0.7v-1.4c0-1.6-0.5-2.9-1.5-3.6c-1-0.8-2.3-1.1-4-1.1c-1.4,0-2.6,0.2-3.9,0.6c-1.2,0.4-2.3,0.8-3.3,1.3
		c-0.3-0.2-0.5-0.5-0.7-0.8c-0.2-0.3-0.3-0.6-0.3-1c0-0.9,0.5-1.5,1.4-2c0.9-0.5,1.9-0.8,3.1-1.1c1.2-0.2,2.4-0.4,3.7-0.4
		c2.9,0,5.1,0.6,6.8,1.9c1.7,1.3,2.5,3.3,2.5,6.1v11.7c0,0.7-0.1,1.3-0.4,1.7c-0.3,0.4-0.7,0.7-1.3,1.1c-0.8,0.4-1.8,0.8-3.2,1.2
		C403.3,408,401.8,408.1,400.2,408.1z M400.2,404.9c1.4,0,2.5-0.1,3.4-0.4c0.9-0.3,1.6-0.6,2-0.8v-7.2l-6.1,0.6
		c-1.7,0.1-3,0.5-3.8,1.1c-0.8,0.6-1.2,1.5-1.2,2.7c0,1.2,0.5,2.2,1.5,2.9C396.8,404.5,398.3,404.9,400.2,404.9z"/>
	<path class="st0" d="M417.6,407.4H416c-0.2-0.2-0.4-0.5-0.6-0.8c-0.1-0.3-0.2-0.6-0.2-1c0-0.4,0.1-0.8,0.3-1.1
		c0.2-0.3,0.4-0.7,0.6-1l15.2-19h1.5c0.3,0.2,0.5,0.5,0.6,0.8c0.1,0.3,0.2,0.6,0.2,1c0,0.4-0.1,0.7-0.2,1c-0.2,0.3-0.4,0.7-0.7,1
		L417.6,407.4z M432.3,384.6v3.3H416c-0.1-0.2-0.2-0.4-0.3-0.7c-0.1-0.3-0.1-0.6-0.1-0.9c0-0.6,0.1-1,0.4-1.2
		c0.3-0.3,0.6-0.4,1.1-0.4H432.3z M416.3,407.4v-3.2h17.3c0.1,0.1,0.2,0.3,0.3,0.6c0.1,0.3,0.1,0.6,0.1,1c0,0.5-0.1,0.9-0.4,1.2
		c-0.3,0.3-0.6,0.4-1.1,0.4H416.3z"/>
	<path class="st0" d="M440.9,398.5l-0.2-3.1l15-2c-0.1-1.8-0.8-3.3-1.9-4.5c-1.1-1.2-2.7-1.8-4.7-1.8c-2,0-3.7,0.7-5.1,2.2
		c-1.3,1.5-2,3.6-2,6.3v1.1c0.2,2.6,1.1,4.6,2.6,6c1.5,1.4,3.6,2.1,6.2,2.1c1.4,0,2.6-0.2,3.8-0.7c1.1-0.5,2-1,2.7-1.5
		c0.4,0.2,0.7,0.5,0.9,0.8c0.2,0.3,0.3,0.7,0.3,1.1c0,0.6-0.4,1.2-1.1,1.8c-0.7,0.5-1.7,1-2.8,1.3c-1.2,0.3-2.5,0.5-3.9,0.5
		c-2.5,0-4.7-0.5-6.6-1.4c-1.9-0.9-3.3-2.3-4.3-4.1c-1-1.8-1.5-4.1-1.5-6.7c0-1.9,0.3-3.6,0.8-5c0.5-1.5,1.3-2.7,2.3-3.7
		c1-1,2.1-1.8,3.5-2.4c1.4-0.5,2.8-0.8,4.4-0.8c2,0,3.8,0.4,5.3,1.3c1.5,0.9,2.7,2.1,3.6,3.6c0.9,1.5,1.3,3.3,1.3,5.3
		c0,0.7-0.2,1.2-0.5,1.6c-0.3,0.3-0.8,0.5-1.4,0.6L440.9,398.5z"/>
	<path class="st0" d="M469.1,388.8v7.8h-4v-7.5c0-0.8,0.1-1.4,0.4-1.8c0.3-0.4,0.8-0.9,1.4-1.3c0.9-0.6,2-1,3.5-1.5
		c1.5-0.4,3.1-0.6,5-0.6c2.6,0,4,0.7,4,2c0,0.3,0,0.6-0.1,0.9c-0.1,0.3-0.2,0.5-0.4,0.7c-0.3-0.1-0.8-0.1-1.3-0.2
		c-0.5-0.1-1.1-0.1-1.6-0.1c-1.5,0-2.9,0.2-4,0.5C470.8,388,469.9,388.4,469.1,388.8z M465.1,394.4l4,0.6v12.4
		c-0.2,0.1-0.4,0.1-0.7,0.2c-0.3,0.1-0.7,0.1-1.1,0.1c-0.7,0-1.2-0.1-1.6-0.4c-0.4-0.3-0.5-0.7-0.5-1.4V394.4z"/>
	<path class="st0" d="M503.7,408.1c-1.4,0-2.7-0.2-4-0.6c-1.2-0.4-2.1-0.9-2.7-1.4v-3.7c0.7,0.6,1.5,1.2,2.5,1.7
		c1,0.5,2.2,0.7,3.6,0.7c2.3,0,4.2-0.7,5.6-2.1c1.4-1.4,2.1-3.7,2.1-6.8c0-2.2-0.4-3.9-1.1-5.2c-0.7-1.3-1.7-2.2-2.8-2.7
		c-1.2-0.6-2.4-0.8-3.8-0.8c-1.2,0-2.2,0.1-3,0.4c-0.8,0.3-1.6,0.6-2.2,1v16.4h-4v-16.3c0-0.7,0.1-1.2,0.3-1.6
		c0.2-0.4,0.7-0.8,1.4-1.2c0.9-0.5,2-0.9,3.2-1.4c1.2-0.4,2.6-0.6,4.2-0.6c2.2,0,4.1,0.4,5.9,1.3c1.8,0.8,3.2,2.1,4.2,3.9
		c1,1.8,1.6,4.1,1.6,6.9c0,2.7-0.5,5-1.4,6.8c-0.9,1.8-2.3,3.1-3.9,4C507.8,407.6,505.9,408.1,503.7,408.1z M496.1,416.7
		c-0.7,0-1.2-0.1-1.6-0.4c-0.4-0.3-0.5-0.8-0.5-1.4v-11.2l4,0.1v12.6c-0.2,0.1-0.4,0.1-0.7,0.2C496.8,416.7,496.5,416.7,496.1,416.7
		z"/>
	<path class="st0" d="M529.2,408.1c-3.1,0-5.5-0.6-7.2-1.8c-1.7-1.2-2.5-3-2.5-5.3c0-2.1,0.7-3.8,2.2-4.9c1.4-1.1,3.4-1.8,6-2.1
		l7-0.7v-1.4c0-1.6-0.5-2.9-1.5-3.6c-1-0.8-2.3-1.1-4-1.1c-1.4,0-2.6,0.2-3.9,0.6c-1.2,0.4-2.3,0.8-3.3,1.3
		c-0.3-0.2-0.5-0.5-0.7-0.8c-0.2-0.3-0.3-0.6-0.3-1c0-0.9,0.5-1.5,1.4-2c0.9-0.5,1.9-0.8,3.1-1.1c1.2-0.2,2.4-0.4,3.7-0.4
		c2.9,0,5.1,0.6,6.8,1.9c1.7,1.3,2.5,3.3,2.5,6.1v11.7c0,0.7-0.1,1.3-0.4,1.7c-0.3,0.4-0.7,0.7-1.3,1.1c-0.8,0.4-1.8,0.8-3.2,1.2
		C532.4,408,530.9,408.1,529.2,408.1z M529.2,404.9c1.4,0,2.5-0.1,3.4-0.4c0.9-0.3,1.6-0.6,2-0.8v-7.2l-6.1,0.6
		c-1.7,0.1-3,0.5-3.8,1.1c-0.8,0.6-1.2,1.5-1.2,2.7c0,1.2,0.5,2.2,1.5,2.9C525.9,404.5,527.3,404.9,529.2,404.9z"/>
	<path class="st0" d="M549.7,388.8v7.8h-4v-7.5c0-0.8,0.1-1.4,0.4-1.8c0.3-0.4,0.8-0.9,1.4-1.3c0.9-0.6,2-1,3.5-1.5
		c1.5-0.4,3.1-0.6,5-0.6c2.6,0,4,0.7,4,2c0,0.3-0.1,0.6-0.1,0.9c-0.1,0.3-0.2,0.5-0.4,0.7c-0.3-0.1-0.8-0.1-1.3-0.2
		c-0.5-0.1-1.1-0.1-1.6-0.1c-1.5,0-2.9,0.2-4,0.5C551.5,388,550.5,388.4,549.7,388.8z M545.8,394.4l4,0.6v12.4
		c-0.2,0.1-0.4,0.1-0.7,0.2c-0.3,0.1-0.7,0.1-1.1,0.1c-0.7,0-1.2-0.1-1.6-0.4c-0.4-0.3-0.5-0.7-0.5-1.4V394.4z"/>
	<path class="st0" d="M572.6,408.1c-3.1,0-5.5-0.6-7.2-1.8c-1.7-1.2-2.5-3-2.5-5.3c0-2.1,0.7-3.8,2.2-4.9c1.4-1.1,3.4-1.8,6-2.1
		l7-0.7v-1.4c0-1.6-0.5-2.9-1.5-3.6c-1-0.8-2.3-1.1-4-1.1c-1.4,0-2.6,0.2-3.9,0.6c-1.2,0.4-2.3,0.8-3.3,1.3
		c-0.3-0.2-0.5-0.5-0.7-0.8c-0.2-0.3-0.3-0.6-0.3-1c0-0.9,0.5-1.5,1.4-2c0.9-0.5,1.9-0.8,3.1-1.1c1.2-0.2,2.4-0.4,3.7-0.4
		c2.9,0,5.1,0.6,6.8,1.9c1.7,1.3,2.5,3.3,2.5,6.1v11.7c0,0.7-0.1,1.3-0.4,1.7c-0.3,0.4-0.7,0.7-1.3,1.1c-0.8,0.4-1.8,0.8-3.2,1.2
		C575.7,408,574.3,408.1,572.6,408.1z M572.6,404.9c1.4,0,2.5-0.1,3.4-0.4c0.9-0.3,1.6-0.6,2-0.8v-7.2l-6.1,0.6
		c-1.7,0.1-3,0.5-3.8,1.1c-0.8,0.6-1.2,1.5-1.2,2.7c0,1.2,0.5,2.2,1.5,2.9C569.3,404.5,570.7,404.9,572.6,404.9z"/>
	<path class="st0" d="M608.8,408.1c-1.4,0-2.7-0.2-4-0.6c-1.2-0.4-2.1-0.9-2.7-1.4v-3.7c0.7,0.6,1.5,1.2,2.5,1.7
		c1,0.5,2.2,0.7,3.6,0.7c2.3,0,4.2-0.7,5.6-2.1c1.4-1.4,2.1-3.7,2.1-6.8c0-2.2-0.4-3.9-1.1-5.2s-1.7-2.2-2.8-2.7
		c-1.2-0.6-2.4-0.8-3.8-0.8c-1.2,0-2.2,0.1-3,0.4c-0.8,0.3-1.6,0.6-2.2,1v16.4h-4v-16.3c0-0.7,0.1-1.2,0.3-1.6s0.7-0.8,1.4-1.2
		c0.9-0.5,2-0.9,3.2-1.4c1.2-0.4,2.6-0.6,4.2-0.6c2.2,0,4.1,0.4,5.9,1.3c1.8,0.8,3.2,2.1,4.2,3.9c1,1.8,1.6,4.1,1.6,6.9
		c0,2.7-0.5,5-1.4,6.8c-0.9,1.8-2.3,3.1-3.9,4C612.9,407.6,611,408.1,608.8,408.1z M601.2,416.7c-0.7,0-1.2-0.1-1.6-0.4
		c-0.4-0.3-0.5-0.8-0.5-1.4v-11.2l4,0.1v12.6c-0.2,0.1-0.4,0.1-0.7,0.2C601.9,416.7,601.6,416.7,601.2,416.7z"/>
	<path class="st0" d="M627.5,398.5l-0.2-3.1l15-2c-0.1-1.8-0.8-3.3-1.9-4.5c-1.1-1.2-2.7-1.8-4.7-1.8c-2,0-3.7,0.7-5.1,2.2
		c-1.3,1.5-2,3.6-2,6.3v1.1c0.2,2.6,1.1,4.6,2.6,6c1.5,1.4,3.6,2.1,6.2,2.1c1.4,0,2.6-0.2,3.8-0.7c1.1-0.5,2-1,2.7-1.5
		c0.4,0.2,0.7,0.5,0.9,0.8c0.2,0.3,0.3,0.7,0.3,1.1c0,0.6-0.4,1.2-1.1,1.8c-0.7,0.5-1.7,1-2.8,1.3c-1.2,0.3-2.5,0.5-3.9,0.5
		c-2.5,0-4.7-0.5-6.6-1.4c-1.9-0.9-3.3-2.3-4.3-4.1c-1-1.8-1.5-4.1-1.5-6.7c0-1.9,0.3-3.6,0.8-5c0.5-1.5,1.3-2.7,2.3-3.7
		c1-1,2.1-1.8,3.5-2.4s2.8-0.8,4.4-0.8c2,0,3.8,0.4,5.3,1.3s2.7,2.1,3.6,3.6c0.9,1.5,1.3,3.3,1.3,5.3c0,0.7-0.2,1.2-0.5,1.6
		c-0.3,0.3-0.8,0.5-1.4,0.6L627.5,398.5z"/>
	<path class="st0" d="M655.7,388.8v7.8h-4v-7.5c0-0.8,0.1-1.4,0.4-1.8c0.3-0.4,0.8-0.9,1.4-1.3c0.9-0.6,2-1,3.5-1.5
		c1.5-0.4,3.1-0.6,5-0.6c2.6,0,4,0.7,4,2c0,0.3-0.1,0.6-0.1,0.9c-0.1,0.3-0.2,0.5-0.4,0.7c-0.3-0.1-0.8-0.1-1.3-0.2
		c-0.5-0.1-1.1-0.1-1.6-0.1c-1.5,0-2.9,0.2-4,0.5C657.5,388,656.5,388.4,655.7,388.8z M651.8,394.4l4,0.6v12.4
		c-0.2,0.1-0.4,0.1-0.7,0.2c-0.3,0.1-0.7,0.1-1.1,0.1c-0.7,0-1.2-0.1-1.6-0.4c-0.4-0.3-0.5-0.7-0.5-1.4V394.4z"/>
	<path class="st0" d="M674.7,395.9h-4v-17.9c0.2-0.1,0.4-0.1,0.8-0.2c0.3-0.1,0.7-0.1,1.1-0.1c0.7,0,1.2,0.1,1.6,0.4
		c0.3,0.3,0.5,0.7,0.5,1.4V395.9z M670.7,394.4h4v6.8c0,1.3,0.4,2.3,1.1,2.8c0.8,0.5,1.8,0.8,3.1,0.8c0.6,0,1.2-0.1,1.9-0.3
		c0.7-0.2,1.3-0.4,1.7-0.7c0.2,0.2,0.4,0.4,0.5,0.7c0.2,0.3,0.2,0.6,0.2,1c0,0.7-0.4,1.3-1.3,1.8c-0.9,0.5-2,0.7-3.6,0.7
		c-2.3,0-4.2-0.5-5.6-1.5c-1.4-1-2.2-2.7-2.2-5.1V394.4z M672.8,388.3v-3.3h10c0.1,0.1,0.2,0.3,0.3,0.6c0.1,0.3,0.1,0.6,0.1,0.9
		c0,0.5-0.1,0.9-0.4,1.2c-0.3,0.3-0.6,0.4-1.1,0.4H672.8z"/>
	<path class="st0" d="M709.6,396c0,2.4-0.5,4.6-1.4,6.4c-0.9,1.8-2.2,3.2-3.9,4.2c-1.7,1-3.7,1.5-5.9,1.5c-2.3,0-4.3-0.5-6-1.5
		c-1.7-1-3-2.4-3.9-4.2c-0.9-1.8-1.4-3.9-1.4-6.4c0-2.5,0.5-4.6,1.4-6.4c0.9-1.8,2.3-3.2,4-4.2c1.7-1,3.7-1.5,5.9-1.5
		c2.2,0,4.2,0.5,5.9,1.5c1.7,1,3,2.4,3.9,4.2C709.1,391.4,709.6,393.5,709.6,396z M698.4,387.2c-2.2,0-4,0.8-5.3,2.4
		c-1.3,1.6-2,3.7-2,6.5c0,2.8,0.6,4.9,1.9,6.5c1.3,1.6,3,2.3,5.3,2.3c2.2,0,4-0.8,5.3-2.4c1.3-1.6,1.9-3.7,1.9-6.5
		c0-2.7-0.6-4.9-1.9-6.5C702.4,388,700.6,387.2,698.4,387.2z"/>
	<path class="st0" d="M712.3,405.4c0-0.8,0.2-1.5,0.7-2c0.5-0.5,1.1-0.8,2-0.8c0.9,0,1.5,0.3,2,0.8c0.5,0.5,0.7,1.2,0.7,2
		c0,0.8-0.2,1.4-0.7,1.9c-0.5,0.5-1.1,0.8-2,0.8c-0.9,0-1.5-0.3-2-0.8C712.6,406.8,712.3,406.1,712.3,405.4z"/>
</g>
</svg>
